#Comment line ignore any data following # character 
#Hierarchical Translation and Rotation (.htr) file 
[Header]	
#Header keywords are followed by a single value 
FileType HTR		#Single word string
DataType HTRS		#Translation followed by rotation and scale data
FileVersion 1		#integer
NumSegments 84		#integer
NumFrames 2		#integer
DataFrameRate 30		#integer, data frame rate in this file
EulerRotationOrder ZYX
CalibrationUnits mm
RotationUnits Degrees
GlobalAxisofGravity Y
BoneLengthAxis Y
ScaleFactor 1.00
[SegmentNames&Hierarchy]
#CHILD	PARENT
MASTER GLOBAL
root MASTER
chest root
L_mid_tent01 root
R_mid_tent01 root
spine01 root
Bip01_Neck chest
L_humerus chest
R_humerus chest
weapon_bone chest
Bip01_Head Bip01_Neck
eye_left_bone Bip01_Head
eye_right_bone Bip01_Head
L_forearm L_humerus
L_front_hand L_forearm
L_weapon_bone L_forearm
L_front_hand01_01 L_front_hand
L_front_hand02_01 L_front_hand
L_front_hand03_01 L_front_hand
L_front_hand01_02 L_front_hand01_01
L_front_hand02_02 L_front_hand02_01
L_front_hand03_02 L_front_hand03_01
R_forearm R_humerus
R_front_hand R_forearm
R_weapon_bone R_forearm
R_front_hand01_01 R_front_hand
R_front_hand02_01 R_front_hand
R_front_hand03_01 R_front_hand
R_front_hand01_02 R_front_hand01_01
R_front_hand02_02 R_front_hand02_01
R_front_hand03_02 R_front_hand03_01
null_rope01_connect L_mid_tent01
Rope1_Seg01 null_rope01_connect
Rope1_Seg02 Rope1_Seg01
Rope1_Seg03 Rope1_Seg02
Rope1_Seg04 Rope1_Seg03
Rope1_Seg05 Rope1_Seg04
Rope1_Seg06 Rope1_Seg05
Rope1_Seg07 Rope1_Seg06
Rope1_Seg09 Rope1_Seg07
L_mid_hand01 Rope1_Seg09
L_mid_hand02 Rope1_Seg09
L_mid_hand03 Rope1_Seg09
null_rope02_connect R_mid_tent01
Rope2_Seg01 null_rope02_connect
Rope2_Seg02 Rope2_Seg01
Rope2_Seg03 Rope2_Seg02
Rope2_Seg04 Rope2_Seg03
Rope2_Seg05 Rope2_Seg04
Rope2_Seg06 Rope2_Seg05
Rope2_Seg07 Rope2_Seg06
Rope2_Seg09 Rope2_Seg07
R_mid_hand01 Rope2_Seg09
R_mid_hand02 Rope2_Seg09
R_mid_hand03 Rope2_Seg09
spine02 spine01
spine03 spine02
pelvis spine03
null_rope03_connect pelvis
null_rope04_connect pelvis
Rope3_Seg01 null_rope03_connect
Rope3_Seg02 Rope3_Seg01
Rope3_Seg03 Rope3_Seg02
Rope3_Seg04 Rope3_Seg03
Rope3_Seg05 Rope3_Seg04
Rope3_Seg06 Rope3_Seg05
Rope3_Seg07 Rope3_Seg06
Rope3_Seg08 Rope3_Seg07
Rope3_Seg09 Rope3_Seg08
R_rear_hand01 Rope3_Seg09
R_rear_hand02 Rope3_Seg09
R_rear_hand03 Rope3_Seg09
Rope4_Seg01 null_rope04_connect
Rope4_Seg02 Rope4_Seg01
Rope4_Seg03 Rope4_Seg02
Rope4_Seg04 Rope4_Seg03
Rope4_Seg05 Rope4_Seg04
Rope4_Seg06 Rope4_Seg05
Rope4_Seg07 Rope4_Seg06
Rope4_Seg08 Rope4_Seg07
Rope4_Seg09 Rope4_Seg08
L_rear_hand01 Rope4_Seg09
L_rear_hand02 Rope4_Seg09
L_rear_hand03 Rope4_Seg09
[BasePosition]
#SegmentName Tx, Ty, Tz, Rx, Ry, Rz, BoneLength
MASTER 0.000000 0.000000 0.000000 -90.000000 0.000000 0.000000 10.000000 
root 0.000000 0.000000 0.000000 0.000000 0.000000 0.000000 10.000000 
chest 0.000000 0.000000 0.000000 0.000000 0.000000 0.000000 10.000000 
L_mid_tent01 0.000000 0.000000 0.000000 0.000000 0.000000 0.000000 10.000000 
R_mid_tent01 0.000000 0.000000 0.000000 0.000000 0.000000 0.000000 10.000000 
spine01 0.000000 0.000000 0.000000 0.000000 0.000000 0.000000 10.000000 
Bip01_Neck 0.000000 0.000000 0.000000 0.000000 0.000000 0.000000 10.000000 
L_humerus 0.000000 0.000000 0.000000 0.000000 0.000000 0.000000 10.000000 
R_humerus 0.000000 0.000000 0.000000 0.000000 0.000000 0.000000 10.000000 
weapon_bone 0.000000 0.000000 0.000000 0.000000 0.000000 0.000000 10.000000 
Bip01_Head 0.000000 0.000000 0.000000 0.000000 0.000000 0.000000 10.000000 
eye_left_bone 0.000000 0.000000 0.000000 0.000000 0.000000 0.000000 10.000000 
eye_right_bone 0.000000 0.000000 0.000000 0.000000 0.000000 0.000000 10.000000 
L_forearm 0.000000 0.000000 0.000000 0.000000 0.000000 0.000000 10.000000 
L_front_hand 0.000000 0.000000 0.000000 0.000000 0.000000 0.000000 10.000000 
L_weapon_bone 0.000000 0.000000 0.000000 0.000000 0.000000 0.000000 10.000000 
L_front_hand01_01 0.000000 0.000000 0.000000 0.000000 0.000000 0.000000 10.000000 
L_front_hand02_01 0.000000 0.000000 0.000000 0.000000 0.000000 0.000000 10.000000 
L_front_hand03_01 0.000000 0.000000 0.000000 0.000000 0.000000 0.000000 10.000000 
L_front_hand01_02 0.000000 0.000000 0.000000 0.000000 0.000000 0.000000 10.000000 
L_front_hand02_02 0.000000 0.000000 0.000000 0.000000 0.000000 0.000000 10.000000 
L_front_hand03_02 0.000000 0.000000 0.000000 0.000000 0.000000 0.000000 10.000000 
R_forearm 0.000000 0.000000 0.000000 0.000000 0.000000 0.000000 10.000000 
R_front_hand 0.000000 0.000000 0.000000 0.000000 0.000000 0.000000 10.000000 
R_weapon_bone 0.000000 0.000000 0.000000 0.000000 0.000000 0.000000 10.000000 
R_front_hand01_01 0.000000 0.000000 0.000000 0.000000 0.000000 0.000000 10.000000 
R_front_hand02_01 0.000000 0.000000 0.000000 0.000000 0.000000 0.000000 10.000000 
R_front_hand03_01 0.000000 0.000000 0.000000 0.000000 0.000000 0.000000 10.000000 
R_front_hand01_02 0.000000 0.000000 0.000000 0.000000 0.000000 0.000000 10.000000 
R_front_hand02_02 0.000000 0.000000 0.000000 0.000000 0.000000 0.000000 10.000000 
R_front_hand03_02 0.000000 0.000000 0.000000 0.000000 0.000000 0.000000 10.000000 
null_rope01_connect 0.000000 0.000000 0.000000 0.000000 0.000000 0.000000 10.000000 
Rope1_Seg01 0.000000 0.000000 0.000000 0.000000 0.000000 0.000000 10.000000 
Rope1_Seg02 0.000000 0.000000 0.000000 0.000000 0.000000 0.000000 10.000000 
Rope1_Seg03 0.000000 0.000000 0.000000 0.000000 0.000000 0.000000 10.000000 
Rope1_Seg04 0.000000 0.000000 0.000000 0.000000 0.000000 0.000000 10.000000 
Rope1_Seg05 0.000000 0.000000 0.000000 0.000000 0.000000 0.000000 10.000000 
Rope1_Seg06 0.000000 0.000000 0.000000 0.000000 0.000000 0.000000 10.000000 
Rope1_Seg07 0.000000 0.000000 0.000000 0.000000 0.000000 0.000000 10.000000 
Rope1_Seg09 0.000000 0.000000 0.000000 0.000000 0.000000 0.000000 10.000000 
L_mid_hand01 0.000000 0.000000 0.000000 0.000000 0.000000 0.000000 10.000000 
L_mid_hand02 0.000000 0.000000 0.000000 0.000000 0.000000 0.000000 10.000000 
L_mid_hand03 0.000000 0.000000 0.000000 0.000000 0.000000 0.000000 10.000000 
null_rope02_connect 0.000000 0.000000 0.000000 0.000000 0.000000 0.000000 10.000000 
Rope2_Seg01 0.000000 0.000000 0.000000 0.000000 0.000000 0.000000 10.000000 
Rope2_Seg02 0.000000 0.000000 0.000000 0.000000 0.000000 0.000000 10.000000 
Rope2_Seg03 0.000000 0.000000 0.000000 0.000000 0.000000 0.000000 10.000000 
Rope2_Seg04 0.000000 0.000000 0.000000 0.000000 0.000000 0.000000 10.000000 
Rope2_Seg05 0.000000 0.000000 0.000000 0.000000 0.000000 0.000000 10.000000 
Rope2_Seg06 0.000000 0.000000 0.000000 0.000000 0.000000 0.000000 10.000000 
Rope2_Seg07 0.000000 0.000000 0.000000 0.000000 0.000000 0.000000 10.000000 
Rope2_Seg09 0.000000 0.000000 0.000000 0.000000 0.000000 0.000000 10.000000 
R_mid_hand01 0.000000 0.000000 0.000000 0.000000 0.000000 0.000000 10.000000 
R_mid_hand02 0.000000 0.000000 0.000000 0.000000 0.000000 0.000000 10.000000 
R_mid_hand03 0.000000 0.000000 0.000000 0.000000 0.000000 0.000000 10.000000 
spine02 0.000000 0.000000 0.000000 0.000000 0.000000 0.000000 10.000000 
spine03 0.000000 0.000000 0.000000 0.000000 0.000000 0.000000 10.000000 
pelvis 0.000000 0.000000 0.000000 0.000000 0.000000 0.000000 10.000000 
null_rope03_connect 0.000000 0.000000 0.000000 0.000000 0.000000 0.000000 10.000000 
null_rope04_connect 0.000000 0.000000 0.000000 0.000000 0.000000 0.000000 10.000000 
Rope3_Seg01 0.000000 0.000000 0.000000 0.000000 0.000000 0.000000 10.000000 
Rope3_Seg02 0.000000 0.000000 0.000000 0.000000 0.000000 0.000000 10.000000 
Rope3_Seg03 0.000000 0.000000 0.000000 0.000000 0.000000 0.000000 10.000000 
Rope3_Seg04 0.000000 0.000000 0.000000 0.000000 0.000000 0.000000 10.000000 
Rope3_Seg05 0.000000 0.000000 0.000000 0.000000 0.000000 0.000000 10.000000 
Rope3_Seg06 0.000000 0.000000 0.000000 0.000000 0.000000 0.000000 10.000000 
Rope3_Seg07 0.000000 0.000000 0.000000 0.000000 0.000000 0.000000 10.000000 
Rope3_Seg08 0.000000 0.000000 0.000000 0.000000 0.000000 0.000000 10.000000 
Rope3_Seg09 0.000000 0.000000 0.000000 0.000000 0.000000 0.000000 10.000000 
R_rear_hand01 0.000000 0.000000 0.000000 0.000000 0.000000 0.000000 10.000000 
R_rear_hand02 0.000000 0.000000 0.000000 0.000000 0.000000 0.000000 10.000000 
R_rear_hand03 0.000000 0.000000 0.000000 0.000000 0.000000 0.000000 10.000000 
Rope4_Seg01 0.000000 0.000000 0.000000 0.000000 0.000000 0.000000 10.000000 
Rope4_Seg02 0.000000 0.000000 0.000000 0.000000 0.000000 0.000000 10.000000 
Rope4_Seg03 0.000000 0.000000 0.000000 0.000000 0.000000 0.000000 10.000000 
Rope4_Seg04 0.000000 0.000000 0.000000 0.000000 0.000000 0.000000 10.000000 
Rope4_Seg05 0.000000 0.000000 0.000000 0.000000 0.000000 0.000000 10.000000 
Rope4_Seg06 0.000000 0.000000 0.000000 0.000000 0.000000 0.000000 10.000000 
Rope4_Seg07 0.000000 0.000000 0.000000 0.000000 0.000000 0.000000 10.000000 
Rope4_Seg08 0.000000 0.000000 0.000000 0.000000 0.000000 0.000000 10.000000 
Rope4_Seg09 0.000000 0.000000 0.000000 0.000000 0.000000 0.000000 10.000000 
L_rear_hand01 0.000000 0.000000 0.000000 0.000000 0.000000 0.000000 10.000000 
L_rear_hand02 0.000000 0.000000 0.000000 0.000000 0.000000 0.000000 10.000000 
L_rear_hand03 0.000000 0.000000 0.000000 0.000000 0.000000 0.000000 10.000000 
#Beginning of Data. Separated by tabs
#Fr	Tx	Ty	Tz	Rx	Ry	Rz	SF
[MASTER]
15 0.000000 0.000000 0.000000 0.001660 0.001660 0.001660 0.000000
16 0.000000 0.000000 0.000000 0.001660 0.001660 0.001660 0.000000
[root]
15 -31.319290 -45.771481 1495.768677 -82.671692 -15.361568 -94.628036 1496.796509
16 -32.971096 -48.127876 1498.599121 -83.410995 -17.513090 -93.175941 1499.734253
[chest]
15 -84.512650 -34.090519 0.000000 -2.254962 2.014920 -175.151810 91.129311
16 -84.512650 -34.090519 0.000000 -2.327829 2.156324 -175.403381 91.129311
[L_mid_tent01]
15 27.299162 22.179245 -249.918732 2.833635 17.965595 80.573029 252.381729
16 27.299166 22.179253 -249.918732 2.063762 21.009689 79.707031 252.381729
[R_mid_tent01]
15 23.228794 24.509907 226.238495 163.642319 -19.196817 79.436035 228.744751
16 23.228794 24.509907 226.238495 163.196716 -25.263678 80.792992 228.744751
[spine01]
15 -0.361383 -0.195265 0.000000 -0.000001 -0.000007 22.052340 0.410763
16 -0.361383 -0.195265 0.000000 -0.000001 -0.000007 22.052340 0.410763
[Bip01_Neck]
15 165.484543 71.581718 0.000119 176.643677 -1.657967 43.431911 180.302734
16 165.484543 71.581718 0.000119 176.643677 -1.657967 43.431911 180.302734
[L_humerus]
15 -13.983130 -135.272980 -120.471481 169.466278 7.217613 -145.726898 181.680161
16 -13.983130 -135.272980 -120.471481 167.746292 10.728723 -143.536194 181.680161
[R_humerus]
15 -13.983309 -135.273102 125.287651 -172.382401 -7.303063 -140.436417 184.909012
16 -13.983309 -135.273102 125.287651 -170.933167 -10.668459 -137.929535 184.909012
[weapon_bone]
15 235.964890 -300.705902 0.000000 0.000000 -89.951546 -128.212341 382.234833
16 235.964890 -300.705902 0.000000 0.000000 -89.951546 -128.212341 382.234833
[Bip01_Head]
15 213.673935 185.076523 20.027426 4.962489 2.797829 -43.898743 283.391876
16 213.662033 185.109406 19.599867 4.440152 -1.457899 -43.897717 283.374512
[eye_left_bone]
15 -24.626970 125.451866 -64.772606 0.000000 -90.000000 -99.840431 143.318359
16 -24.626970 125.451866 -64.772606 0.000000 -90.000000 -99.840431 143.318359
[eye_right_bone]
15 -24.626970 125.451866 64.327362 0.000000 -89.965736 80.156380 143.117676
16 -24.626970 125.451866 64.327362 0.000000 -89.965736 80.156380 143.117676
[L_forearm]
15 322.776093 0.000000 -0.000119 0.000396 -0.002314 -109.419975 322.776093
16 322.776093 0.000000 -0.000119 0.000396 -0.002314 -109.419975 322.776093
[L_front_hand]
15 241.149185 -0.042021 -3.300071 -178.667953 -1.835447 -27.422350 241.171753
16 241.149185 -0.042021 -3.300071 -178.667953 -1.835447 -27.422350 241.171753
[L_weapon_bone]
15 156.183838 0.000000 0.000000 0.000014 0.000007 0.000001 156.183838
16 156.183838 0.000000 0.000000 0.000014 0.000007 0.000001 156.183838
[L_front_hand01_01]
15 86.095154 20.947098 -0.655860 -0.274633 -0.532782 65.272827 88.609184
16 86.095154 20.947098 -0.655860 -0.280373 -0.529283 65.613800 88.609184
[L_front_hand02_01]
15 86.935165 -11.437475 24.513514 141.090271 -54.445614 -45.572052 91.046425
16 86.935165 -11.437475 24.513514 141.458649 -54.658318 -46.027473 91.046425
[L_front_hand03_01]
15 86.637497 -14.123976 -20.424902 -141.476303 52.677540 -47.637543 90.126129
16 86.637497 -14.123976 -20.424902 -141.832764 52.885189 -48.080185 90.126129
[L_front_hand01_02]
15 71.020905 -0.000179 0.000030 0.000315 -0.002326 -105.405197 71.020905
16 71.020905 -0.000179 0.000030 0.000315 -0.002326 -105.400543 71.020905
[L_front_hand02_02]
15 71.020927 -0.000119 0.000060 0.000315 -0.002326 -105.405197 71.020927
16 71.020927 -0.000119 0.000060 0.000315 -0.002326 -105.400543 71.020927
[L_front_hand03_02]
15 71.020905 -0.000060 0.000060 0.000315 -0.002326 -105.405197 71.020905
16 71.020905 -0.000060 0.000060 0.000315 -0.002326 -105.400543 71.020905
[R_forearm]
15 322.776428 -0.000060 0.000030 0.202103 0.065158 -108.062805 322.776428
16 322.776428 -0.000060 0.000030 0.202103 0.065158 -108.062820 322.776428
[R_front_hand]
15 238.847015 -0.006795 2.210259 -2.635298 -10.645461 -26.312506 238.857239
16 238.847015 -0.006795 2.210259 -2.635298 -10.645461 -26.312506 238.857239
[R_weapon_bone]
15 155.664093 0.002503 -0.000030 0.003487 0.001180 -90.988930 155.664078
16 155.664093 0.002503 -0.000030 0.003487 0.001180 -90.988930 155.664078
[R_front_hand01_01]
15 87.624611 14.231146 22.918642 -138.456909 -52.798630 42.405624 91.683487
16 87.624611 14.231146 22.918642 -138.672302 -52.939842 42.677608 91.683487
[R_front_hand02_01]
15 89.356956 14.367283 -19.491137 139.300415 51.240429 45.105949 92.579636
16 89.356956 14.367283 -19.491137 139.502060 51.377892 45.363934 92.579636
[R_front_hand03_01]
15 87.286232 -22.307278 -0.143439 0.064051 -0.451784 -62.968163 90.091743
16 87.286232 -22.307278 -0.143439 0.064897 -0.451663 -63.182877 90.091743
[R_front_hand01_02]
15 71.020905 0.000060 0.000119 0.002323 -0.000334 106.381714 71.020905
16 71.020905 0.000060 0.000119 0.002323 -0.000334 106.381714 71.020905
[R_front_hand02_02]
15 71.020844 -0.000030 -0.000119 0.002323 -0.000334 106.381714 71.020836
16 71.020844 -0.000030 -0.000119 0.002323 -0.000334 106.381714 71.020836
[R_front_hand03_02]
15 71.020905 0.000000 0.000030 0.002323 -0.000334 106.381714 71.020905
16 71.020905 0.000000 0.000030 0.002323 -0.000334 106.381714 71.020905
[null_rope01_connect]
15 328.732483 0.000000 -0.000238 -122.421959 -74.898705 146.958496 328.732483
16 328.732483 0.000000 -0.000238 -131.758209 -72.896919 159.293137 328.732483
[Rope1_Seg01]
15 0.000000 0.000000 0.000000 -124.340073 49.867233 -116.574951 0.000000
16 0.000000 0.000000 0.000000 170.298538 37.306362 -139.609039 0.000000
[Rope1_Seg02]
15 139.999863 -0.000179 0.000000 -5.355860 -3.609910 9.115831 139.999863
16 139.999863 -0.000179 0.000000 10.590436 -12.911455 4.290131 139.999863
[Rope1_Seg03]
15 139.999924 0.000060 -0.000060 -5.080694 -5.923074 13.435091 139.999924
16 139.999924 0.000060 -0.000060 3.345725 -17.190411 11.300927 139.999924
[Rope1_Seg04]
15 139.999924 -0.000060 -0.000119 -5.821546 -4.219257 17.933064 139.999924
16 139.999924 -0.000060 -0.000119 -0.746662 -15.476613 14.022933 139.999924
[Rope1_Seg05]
15 139.999832 0.000119 -0.000060 -1.210838 -24.573126 14.021204 139.999832
16 139.999832 0.000119 -0.000060 -1.942080 -28.828190 10.328814 139.999832
[Rope1_Seg06]
15 139.999954 0.000119 -0.000060 -4.704612 -23.667856 7.753325 139.999954
16 139.999954 0.000119 -0.000060 -7.521260 -24.796839 6.926283 139.999954
[Rope1_Seg07]
15 139.999985 0.000060 0.000000 -2.707217 -9.134582 3.583232 139.999985
16 139.999985 0.000060 0.000000 -4.876184 -10.284184 2.254905 139.999985
[Rope1_Seg09]
15 121.602913 0.000119 -0.000089 -89.793175 -1.359789 0.847147 121.602913
16 121.602913 0.000119 -0.000089 -89.793175 -1.359789 0.847147 121.602913
[L_mid_hand01]
15 103.859421 1.038730 8.195221 118.511887 -58.710995 -25.432131 104.187431
16 103.859421 1.038730 8.195221 122.214615 -62.281216 -29.682961 104.187431
[L_mid_hand02]
15 105.572853 -4.139662 -10.864139 -159.626389 40.490177 -59.638344 106.211075
16 105.572853 -4.139662 -10.864139 -163.055817 41.815441 -64.846214 106.211075
[L_mid_hand03]
15 104.641464 17.579376 -3.913581 -9.285485 16.381811 63.801453 106.179977
16 104.641464 17.579376 -3.913581 -8.059152 17.002199 68.062904 106.179977
[null_rope02_connect]
15 328.732849 0.000179 -0.000119 -127.658615 63.758381 21.668224 328.732849
16 328.732849 0.000179 -0.000119 -127.605080 57.554031 20.057285 328.732849
[Rope2_Seg01]
15 0.000095 0.000153 0.000059 -92.809776 39.399448 -10.256665 0.000189
16 0.000095 0.000153 0.000064 -52.929256 14.062535 7.291058 0.000191
[Rope2_Seg02]
15 139.999741 -0.000060 -0.000119 -18.852880 -9.567883 26.514347 139.999756
16 139.999741 -0.000060 -0.000119 -19.445894 5.727207 30.512094 139.999756
[Rope2_Seg03]
15 140.000107 0.000030 0.000000 -7.550531 -12.371013 20.986177 140.000107
16 140.000107 0.000030 0.000000 -12.028796 -3.557274 40.375473 140.000107
[Rope2_Seg04]
15 139.999802 0.000000 -0.000060 -1.146917 -7.638927 8.920305 139.999802
16 139.999802 0.000000 -0.000060 -0.650709 -5.946629 15.164662 139.999802
[Rope2_Seg05]
15 139.999985 -0.000060 0.000119 -0.272559 -9.240385 0.753084 139.999985
16 139.999985 -0.000060 0.000119 -0.760933 -9.045051 -0.206019 139.999985
[Rope2_Seg06]
15 139.999893 -0.000030 -0.000119 -1.770898 -14.484186 -2.336308 139.999893
16 139.999893 -0.000030 -0.000119 -2.346241 -11.830788 -2.251942 139.999893
[Rope2_Seg07]
15 139.999893 0.000060 -0.000060 -2.548838 -12.030952 -0.197281 139.999893
16 139.999893 0.000060 -0.000060 -2.007469 -8.994759 0.313406 139.999893
[Rope2_Seg09]
15 121.338966 0.000089 -0.000060 33.793236 -1.359788 -0.847141 121.338966
16 121.338966 0.000089 -0.000060 33.793236 -1.359788 -0.847141 121.338966
[R_mid_hand01]
15 104.680779 11.144459 -10.335981 -34.826839 34.540043 41.908749 105.778534
16 104.680779 11.144459 -10.335981 -32.057335 37.073120 46.635834 105.778534
[R_mid_hand02]
15 104.070427 2.443552 8.231699 68.824303 -46.622643 16.260368 104.424065
16 104.070427 2.443552 8.231699 66.849976 -50.884758 18.890078 104.424065
[R_mid_hand03]
15 106.028137 -11.221827 -5.996406 -170.883774 12.973575 -51.735550 106.788818
16 106.028137 -11.221827 -5.996406 -171.959641 13.662919 -56.404930 106.788818
[spine02]
15 129.756927 0.001550 0.000119 0.360061 -4.044797 -12.915058 129.756927
16 129.756927 0.001550 0.000119 0.360061 -4.044797 -12.915058 129.756927
[spine03]
15 78.614052 0.081719 -4.899014 1.896495 3.831288 16.473045 78.766586
16 78.614044 0.081736 -4.899014 1.896495 3.831288 16.473045 78.766579
[pelvis]
15 169.435242 0.051022 0.000000 -0.060465 -0.180225 14.087930 169.435257
16 169.435242 0.051022 0.000000 -0.060465 -0.180225 14.087930 169.435257
[null_rope03_connect]
15 -1.257226 -2.466202 137.391083 -17.065893 -81.431175 83.062386 137.418976
16 -1.257226 -2.466202 137.391083 -7.643723 -82.538834 75.665794 137.418976
[null_rope04_connect]
15 -1.259640 -2.480268 -137.844437 -17.065893 -81.431175 83.062386 137.872513
16 -1.259640 -2.480268 -137.844437 -7.643723 -82.538834 75.665794 137.872513
[Rope3_Seg01]
15 -0.000010 0.000000 -0.000237 -128.079910 11.038827 -64.175926 0.000238
16 -0.000010 0.000000 -0.000254 -130.289063 0.675257 -67.861313 0.000254
[Rope3_Seg02]
15 139.999924 -0.000119 0.000060 1.929301 -9.868935 -1.510426 139.999924
16 139.999924 -0.000119 0.000060 1.868692 -9.777796 -6.993308 139.999924
[Rope3_Seg03]
15 139.999924 -0.000119 0.000119 3.089840 -10.472863 -1.662806 139.999924
16 139.999924 -0.000119 0.000119 2.196110 -9.153796 -9.419269 139.999924
[Rope3_Seg04]
15 139.999924 0.000119 0.000000 4.125797 -10.321699 -1.663123 139.999924
16 139.999924 0.000119 0.000000 17.052582 -22.350666 -11.474301 139.999924
[Rope3_Seg05]
15 139.999924 -0.000238 0.000060 13.126831 -21.243925 3.279434 139.999924
16 139.999924 -0.000238 0.000060 44.793755 -29.923903 1.751842 139.999924
[Rope3_Seg06]
15 139.999893 -0.000119 -0.000060 9.646287 -11.704887 5.379957 139.999893
16 139.999893 -0.000119 -0.000060 14.045534 -6.997622 7.217726 139.999893
[Rope3_Seg07]
15 139.999771 0.000060 -0.000119 4.921189 -4.970081 3.187520 139.999771
16 139.999771 0.000060 -0.000119 6.552543 -2.675025 4.577034 139.999771
[Rope3_Seg08]
15 139.999985 -0.000060 0.000000 3.008837 -2.609714 2.016620 139.999985
16 139.999985 -0.000060 0.000000 3.473174 -1.157442 2.643789 139.999985
[Rope3_Seg09]
15 90.185997 -0.000179 -0.000060 89.793228 -1.359877 -0.847183 90.185997
16 90.185997 -0.000179 -0.000060 89.793228 -1.359877 -0.847183 90.185997
[R_rear_hand01]
15 103.366196 -6.073594 -10.757982 -167.736008 21.565809 -48.800846 104.101845
16 103.366196 -6.073594 -10.757982 -169.706436 22.536156 -54.046982 104.101845
[R_rear_hand02]
15 100.509819 12.039542 -7.992327 -27.197788 28.737711 46.115414 101.543350
16 100.509819 12.039542 -7.992327 -24.637728 30.906176 51.254948 101.543350
[R_rear_hand03]
15 101.539970 5.215704 5.435467 81.295578 -49.108295 10.466789 101.819031
16 101.539970 5.215704 5.435467 80.293846 -53.997543 11.741187 101.819031
[Rope4_Seg01]
15 0.000010 0.000038 -0.000114 42.436619 7.574792 -133.888687 0.000121
16 0.000010 0.000038 -0.000114 46.557823 1.065556 -129.754852 0.000121
[Rope4_Seg02]
15 139.999985 0.000060 0.000119 -7.110635 14.202770 -9.712329 139.999985
16 139.999985 0.000060 0.000119 -5.259035 3.914554 -9.446887 139.999985
[Rope4_Seg03]
15 139.999924 0.000000 -0.000238 -3.976326 19.842140 -7.827327 139.999924
16 139.999924 0.000000 -0.000238 -8.400815 9.966893 -13.832174 139.999924
[Rope4_Seg04]
15 139.999985 0.000000 0.000119 0.334259 17.467466 -4.221221 139.999985
16 139.999985 0.000000 0.000119 -13.317496 13.961839 -26.119522 139.999985
[Rope4_Seg05]
15 139.999802 -0.000060 -0.000119 2.475444 4.845374 -16.493835 139.999802
16 139.999802 -0.000060 -0.000119 -18.224520 11.194528 -42.505520 139.999802
[Rope4_Seg06]
15 139.999924 0.000000 0.000060 1.557104 -0.584398 -19.458984 139.999924
16 139.999924 0.000000 0.000060 -5.320747 8.749537 -13.238289 139.999924
[Rope4_Seg07]
15 139.999802 0.000000 0.000000 -0.226601 1.257868 -9.915052 139.999802
16 139.999802 0.000000 0.000000 -1.700586 4.426417 -5.575409 139.999802
[Rope4_Seg08]
15 139.999924 0.000000 0.000119 -1.852889 0.752028 -5.656654 139.999924
16 139.999924 0.000000 0.000119 -1.907340 1.364738 -1.623836 139.999924
[Rope4_Seg09]
15 90.185791 0.000060 0.000060 -135.617828 2.228885 0.850567 90.185791
16 90.185791 0.000060 0.000060 -135.617828 2.228885 0.850567 90.185791
[L_rear_hand01]
15 101.696655 -8.392275 -7.654577 -18.919886 -34.466530 118.185951 102.329041
16 101.696655 -8.392275 -7.654577 -16.606968 -35.526844 114.151596 102.329041
[L_rear_hand02]
15 102.726799 -1.568258 5.773216 77.226936 63.386848 164.679062 102.900848
16 102.726799 -1.568258 5.773216 75.446785 66.761185 162.720428 102.900848
[L_rear_hand03]
15 104.552910 9.721220 -10.420293 -173.780411 -23.916815 -115.646576 105.519653
16 104.552910 9.721220 -10.420293 -175.325211 -24.244331 -111.864197 105.519653
